<svg width="48" height="48" viewBox="0 0 48 48" fill="none" xmlns="http://www.w3.org/2000/svg">
<path d="M0 24C0 29.7923 2.09482 35.3892 5.89797 39.7581C9.70112 44.1269 14.956 46.973 20.693 47.7711C26.4301 48.5692 32.2622 47.2656 37.1135 44.1007C41.9647 40.9358 45.5076 36.1232 47.0887 30.5508L41.8014 29.0507C40.5824 33.347 37.8508 37.0575 34.1105 39.4976C30.3702 41.9377 25.8736 42.9429 21.4503 42.3275C17.0271 41.7121 12.9756 39.5179 10.0433 36.1495C7.1111 32.7811 5.496 28.4659 5.496 24H0Z" fill="url(#paint0_linear_104_378)"/>
<path d="M48 24C48 18.2077 45.9052 12.6108 42.102 8.24194C38.2989 3.87308 33.044 1.02705 27.307 0.228926C21.5699 -0.569198 15.7378 0.734442 10.8865 3.89933C6.03531 7.06421 2.49236 11.8768 0.911335 17.4492L6.19864 18.9493C7.41761 14.653 10.1492 10.9425 13.8895 8.50238C17.6298 6.06225 22.1264 5.05715 26.5497 5.6725C30.9729 6.28785 35.0244 8.48215 37.9567 11.8505C40.8889 15.2189 42.504 19.5341 42.504 24L48 24Z" fill="url(#paint1_linear_104_378)"/>
<defs>
<linearGradient id="paint0_linear_104_378" x1="0" y1="24" x2="48" y2="24" gradientUnits="userSpaceOnUse">
<stop stop-color="#1E1E1E"/>
<stop offset="1" stop-color="#D9D9D9" stop-opacity="0"/>
</linearGradient>
<linearGradient id="paint1_linear_104_378" x1="48" y1="24" x2="0" y2="24" gradientUnits="userSpaceOnUse">
<stop stop-color="#1E1E1E"/>
<stop offset="1" stop-color="#D9D9D9" stop-opacity="0"/>
</linearGradient>
</defs>
</svg>
